<mxfile host="app.diagrams.net" agent="Mozilla/5.0 (Windows NT 10.0; Win64; x64; rv:137.0) Gecko/20100101 Firefox/137.0" version="26.2.14">
  <diagram name="Page-1" id="Ul355fQO2WzEIBkIWOOS">
    <mxGraphModel dx="663" dy="362" grid="1" gridSize="10" guides="1" tooltips="1" connect="1" arrows="1" fold="1" page="1" pageScale="1" pageWidth="850" pageHeight="1100" math="0" shadow="0">
      <root>
        <mxCell id="0" />
        <mxCell id="1" parent="0" />
        <mxCell id="V888Rv6FAk_6unNwcQ0X-9" value="Antragsteller" style="swimlane;whiteSpace=wrap;html=1;" vertex="1" parent="1">
          <mxGeometry x="40" y="40" width="200" height="560" as="geometry">
            <mxRectangle x="40" y="40" width="110" height="30" as="alternateBounds" />
          </mxGeometry>
        </mxCell>
        <mxCell id="V888Rv6FAk_6unNwcQ0X-16" style="edgeStyle=orthogonalEdgeStyle;rounded=0;orthogonalLoop=1;jettySize=auto;html=1;entryX=0.5;entryY=0;entryDx=0;entryDy=0;" edge="1" parent="V888Rv6FAk_6unNwcQ0X-9" source="V888Rv6FAk_6unNwcQ0X-14" target="V888Rv6FAk_6unNwcQ0X-15">
          <mxGeometry relative="1" as="geometry" />
        </mxCell>
        <mxCell id="V888Rv6FAk_6unNwcQ0X-14" value="" style="strokeWidth=2;html=1;shape=mxgraph.flowchart.start_2;whiteSpace=wrap;fillColor=light-dark(#FFFFFF,#FFFFFF);" vertex="1" parent="V888Rv6FAk_6unNwcQ0X-9">
          <mxGeometry x="80" y="40" width="40" height="40" as="geometry" />
        </mxCell>
        <mxCell id="V888Rv6FAk_6unNwcQ0X-15" value="Antrag gestellt" style="rounded=1;whiteSpace=wrap;html=1;" vertex="1" parent="V888Rv6FAk_6unNwcQ0X-9">
          <mxGeometry x="40" y="120" width="120" height="40" as="geometry" />
        </mxCell>
        <mxCell id="V888Rv6FAk_6unNwcQ0X-31" value="" style="strokeWidth=2;html=1;shape=mxgraph.flowchart.start_2;whiteSpace=wrap;fillColor=light-dark(#FFFFFF,#FFFFFF);" vertex="1" parent="V888Rv6FAk_6unNwcQ0X-9">
          <mxGeometry x="80" y="360" width="40" height="40" as="geometry" />
        </mxCell>
        <mxCell id="V888Rv6FAk_6unNwcQ0X-34" value="" style="group" vertex="1" connectable="0" parent="V888Rv6FAk_6unNwcQ0X-9">
          <mxGeometry x="75" y="355" width="50" height="50" as="geometry" />
        </mxCell>
        <mxCell id="V888Rv6FAk_6unNwcQ0X-35" value="" style="ellipse;whiteSpace=wrap;html=1;aspect=fixed;" vertex="1" parent="V888Rv6FAk_6unNwcQ0X-34">
          <mxGeometry width="50" height="50" as="geometry" />
        </mxCell>
        <mxCell id="V888Rv6FAk_6unNwcQ0X-36" value="" style="ellipse;whiteSpace=wrap;html=1;aspect=fixed;fillColor=light-dark(#FFFFFF,#FFFFFF);perimeterSpacing=0;" vertex="1" parent="V888Rv6FAk_6unNwcQ0X-34">
          <mxGeometry x="5" y="5" width="40" height="40" as="geometry" />
        </mxCell>
        <mxCell id="V888Rv6FAk_6unNwcQ0X-10" value="Bauamt" style="swimlane;whiteSpace=wrap;html=1;" vertex="1" parent="1">
          <mxGeometry x="240" y="40" width="200" height="560" as="geometry">
            <mxRectangle x="240" y="40" width="80" height="30" as="alternateBounds" />
          </mxGeometry>
        </mxCell>
        <mxCell id="V888Rv6FAk_6unNwcQ0X-24" style="edgeStyle=orthogonalEdgeStyle;rounded=0;orthogonalLoop=1;jettySize=auto;html=1;entryX=0;entryY=0;entryDx=0;entryDy=0;" edge="1" parent="V888Rv6FAk_6unNwcQ0X-10" source="V888Rv6FAk_6unNwcQ0X-17" target="V888Rv6FAk_6unNwcQ0X-22">
          <mxGeometry relative="1" as="geometry" />
        </mxCell>
        <mxCell id="V888Rv6FAk_6unNwcQ0X-17" value="prüft" style="rounded=1;whiteSpace=wrap;html=1;" vertex="1" parent="V888Rv6FAk_6unNwcQ0X-10">
          <mxGeometry x="40" y="120" width="120" height="40" as="geometry" />
        </mxCell>
        <mxCell id="V888Rv6FAk_6unNwcQ0X-26" style="edgeStyle=orthogonalEdgeStyle;rounded=0;orthogonalLoop=1;jettySize=auto;html=1;entryX=0.5;entryY=0;entryDx=0;entryDy=0;" edge="1" parent="V888Rv6FAk_6unNwcQ0X-10" source="V888Rv6FAk_6unNwcQ0X-19" target="V888Rv6FAk_6unNwcQ0X-25">
          <mxGeometry relative="1" as="geometry" />
        </mxCell>
        <mxCell id="V888Rv6FAk_6unNwcQ0X-19" value="" style="rhombus;whiteSpace=wrap;html=1;" vertex="1" parent="V888Rv6FAk_6unNwcQ0X-10">
          <mxGeometry x="80" y="200" width="40" height="40" as="geometry" />
        </mxCell>
        <mxCell id="V888Rv6FAk_6unNwcQ0X-22" value="Ja" style="text;html=1;align=center;verticalAlign=middle;whiteSpace=wrap;rounded=0;" vertex="1" parent="V888Rv6FAk_6unNwcQ0X-10">
          <mxGeometry x="100" y="200" width="60" height="30" as="geometry" />
        </mxCell>
        <mxCell id="V888Rv6FAk_6unNwcQ0X-23" value="Erfolgreich?" style="text;html=1;align=center;verticalAlign=middle;whiteSpace=wrap;rounded=0;" vertex="1" parent="V888Rv6FAk_6unNwcQ0X-10">
          <mxGeometry x="30" y="190" width="60" height="30" as="geometry" />
        </mxCell>
        <mxCell id="V888Rv6FAk_6unNwcQ0X-25" value="abgelehnt" style="rounded=1;whiteSpace=wrap;html=1;" vertex="1" parent="V888Rv6FAk_6unNwcQ0X-10">
          <mxGeometry x="40" y="280" width="120" height="40" as="geometry" />
        </mxCell>
        <mxCell id="V888Rv6FAk_6unNwcQ0X-27" value="&lt;div&gt;Nein&lt;/div&gt;" style="text;html=1;align=center;verticalAlign=middle;resizable=0;points=[];autosize=1;strokeColor=none;fillColor=none;" vertex="1" parent="V888Rv6FAk_6unNwcQ0X-10">
          <mxGeometry x="60" y="240" width="50" height="30" as="geometry" />
        </mxCell>
        <mxCell id="V888Rv6FAk_6unNwcQ0X-74" value="bescheid erstellt" style="rounded=1;whiteSpace=wrap;html=1;" vertex="1" parent="V888Rv6FAk_6unNwcQ0X-10">
          <mxGeometry x="40" y="480" width="120" height="40" as="geometry" />
        </mxCell>
        <mxCell id="V888Rv6FAk_6unNwcQ0X-11" value="Bezirksverwaltung" style="swimlane;whiteSpace=wrap;html=1;" vertex="1" parent="1">
          <mxGeometry x="440" y="40" width="200" height="560" as="geometry" />
        </mxCell>
        <mxCell id="V888Rv6FAk_6unNwcQ0X-58" style="edgeStyle=orthogonalEdgeStyle;rounded=0;orthogonalLoop=1;jettySize=auto;html=1;exitX=0.75;exitY=0.5;exitDx=0;exitDy=0;exitPerimeter=0;entryX=0.5;entryY=0;entryDx=0;entryDy=0;" edge="1" parent="V888Rv6FAk_6unNwcQ0X-11" source="V888Rv6FAk_6unNwcQ0X-45" target="V888Rv6FAk_6unNwcQ0X-52">
          <mxGeometry relative="1" as="geometry" />
        </mxCell>
        <mxCell id="V888Rv6FAk_6unNwcQ0X-59" style="edgeStyle=orthogonalEdgeStyle;rounded=0;orthogonalLoop=1;jettySize=auto;html=1;exitX=0.25;exitY=0.5;exitDx=0;exitDy=0;exitPerimeter=0;entryX=0.5;entryY=0;entryDx=0;entryDy=0;" edge="1" parent="V888Rv6FAk_6unNwcQ0X-11" source="V888Rv6FAk_6unNwcQ0X-45" target="V888Rv6FAk_6unNwcQ0X-53">
          <mxGeometry relative="1" as="geometry">
            <Array as="points">
              <mxPoint x="50" y="255" />
            </Array>
          </mxGeometry>
        </mxCell>
        <mxCell id="V888Rv6FAk_6unNwcQ0X-45" value="" style="line;strokeWidth=4;html=1;" vertex="1" parent="V888Rv6FAk_6unNwcQ0X-11">
          <mxGeometry x="20" y="250" width="160" height="10" as="geometry" />
        </mxCell>
        <mxCell id="V888Rv6FAk_6unNwcQ0X-61" style="edgeStyle=orthogonalEdgeStyle;rounded=0;orthogonalLoop=1;jettySize=auto;html=1;entryX=0.5;entryY=0;entryDx=0;entryDy=0;" edge="1" parent="V888Rv6FAk_6unNwcQ0X-11" source="V888Rv6FAk_6unNwcQ0X-52" target="V888Rv6FAk_6unNwcQ0X-60">
          <mxGeometry relative="1" as="geometry" />
        </mxCell>
        <mxCell id="V888Rv6FAk_6unNwcQ0X-52" value="" style="rhombus;whiteSpace=wrap;html=1;" vertex="1" parent="V888Rv6FAk_6unNwcQ0X-11">
          <mxGeometry x="120" y="280" width="40" height="40" as="geometry" />
        </mxCell>
        <mxCell id="V888Rv6FAk_6unNwcQ0X-67" style="edgeStyle=orthogonalEdgeStyle;rounded=0;orthogonalLoop=1;jettySize=auto;html=1;" edge="1" parent="V888Rv6FAk_6unNwcQ0X-11" source="V888Rv6FAk_6unNwcQ0X-53" target="V888Rv6FAk_6unNwcQ0X-63">
          <mxGeometry relative="1" as="geometry">
            <Array as="points">
              <mxPoint x="50" y="470" />
              <mxPoint x="50" y="470" />
            </Array>
          </mxGeometry>
        </mxCell>
        <mxCell id="V888Rv6FAk_6unNwcQ0X-53" value="prüft" style="rounded=1;whiteSpace=wrap;html=1;" vertex="1" parent="V888Rv6FAk_6unNwcQ0X-11">
          <mxGeometry x="10" y="360" width="80" height="40" as="geometry" />
        </mxCell>
        <mxCell id="V888Rv6FAk_6unNwcQ0X-64" style="edgeStyle=orthogonalEdgeStyle;rounded=0;orthogonalLoop=1;jettySize=auto;html=1;" edge="1" parent="V888Rv6FAk_6unNwcQ0X-11" source="V888Rv6FAk_6unNwcQ0X-60" target="V888Rv6FAk_6unNwcQ0X-63">
          <mxGeometry relative="1" as="geometry">
            <Array as="points">
              <mxPoint x="140" y="470" />
              <mxPoint x="140" y="470" />
            </Array>
          </mxGeometry>
        </mxCell>
        <mxCell id="V888Rv6FAk_6unNwcQ0X-60" value="" style="rhombus;whiteSpace=wrap;html=1;" vertex="1" parent="V888Rv6FAk_6unNwcQ0X-11">
          <mxGeometry x="120" y="360" width="40" height="40" as="geometry" />
        </mxCell>
        <mxCell id="V888Rv6FAk_6unNwcQ0X-63" value="" style="line;strokeWidth=4;html=1;" vertex="1" parent="V888Rv6FAk_6unNwcQ0X-11">
          <mxGeometry x="20" y="490" width="560" height="10" as="geometry" />
        </mxCell>
        <mxCell id="V888Rv6FAk_6unNwcQ0X-68" value="Geschäftshaus?" style="text;html=1;align=center;verticalAlign=middle;resizable=0;points=[];autosize=1;strokeColor=none;fillColor=none;fontSize=8;" vertex="1" parent="V888Rv6FAk_6unNwcQ0X-11">
          <mxGeometry x="61" y="276" width="80" height="20" as="geometry" />
        </mxCell>
        <mxCell id="V888Rv6FAk_6unNwcQ0X-69" value="ind. prod.?" style="text;html=1;align=center;verticalAlign=middle;resizable=0;points=[];autosize=1;strokeColor=none;fillColor=none;fontSize=8;" vertex="1" parent="V888Rv6FAk_6unNwcQ0X-11">
          <mxGeometry x="81" y="356" width="60" height="20" as="geometry" />
        </mxCell>
        <mxCell id="V888Rv6FAk_6unNwcQ0X-70" value="Ja" style="text;html=1;align=center;verticalAlign=middle;resizable=0;points=[];autosize=1;strokeColor=none;fillColor=none;fontSize=8;" vertex="1" parent="V888Rv6FAk_6unNwcQ0X-11">
          <mxGeometry x="155" y="283" width="30" height="20" as="geometry" />
        </mxCell>
        <mxCell id="V888Rv6FAk_6unNwcQ0X-71" value="Nein" style="text;html=1;align=center;verticalAlign=middle;resizable=0;points=[];autosize=1;strokeColor=none;fillColor=none;fontSize=8;" vertex="1" parent="V888Rv6FAk_6unNwcQ0X-11">
          <mxGeometry x="130" y="321" width="40" height="20" as="geometry" />
        </mxCell>
        <mxCell id="V888Rv6FAk_6unNwcQ0X-12" value="IHK" style="swimlane;whiteSpace=wrap;html=1;" vertex="1" parent="1">
          <mxGeometry x="640" y="40" width="200" height="560" as="geometry" />
        </mxCell>
        <mxCell id="V888Rv6FAk_6unNwcQ0X-65" style="edgeStyle=orthogonalEdgeStyle;rounded=0;orthogonalLoop=1;jettySize=auto;html=1;" edge="1" parent="V888Rv6FAk_6unNwcQ0X-12" source="V888Rv6FAk_6unNwcQ0X-54">
          <mxGeometry relative="1" as="geometry">
            <mxPoint x="100" y="490" as="targetPoint" />
          </mxGeometry>
        </mxCell>
        <mxCell id="V888Rv6FAk_6unNwcQ0X-54" value="prüft" style="rounded=1;whiteSpace=wrap;html=1;" vertex="1" parent="V888Rv6FAk_6unNwcQ0X-12">
          <mxGeometry x="40" y="280" width="120" height="40" as="geometry" />
        </mxCell>
        <mxCell id="V888Rv6FAk_6unNwcQ0X-13" value="Umweltamt" style="swimlane;whiteSpace=wrap;html=1;" vertex="1" parent="1">
          <mxGeometry x="840" y="40" width="200" height="560" as="geometry" />
        </mxCell>
        <mxCell id="V888Rv6FAk_6unNwcQ0X-66" style="edgeStyle=orthogonalEdgeStyle;rounded=0;orthogonalLoop=1;jettySize=auto;html=1;" edge="1" parent="V888Rv6FAk_6unNwcQ0X-13" source="V888Rv6FAk_6unNwcQ0X-56">
          <mxGeometry relative="1" as="geometry">
            <mxPoint x="100" y="490" as="targetPoint" />
          </mxGeometry>
        </mxCell>
        <mxCell id="V888Rv6FAk_6unNwcQ0X-56" value="prüft" style="rounded=1;whiteSpace=wrap;html=1;" vertex="1" parent="V888Rv6FAk_6unNwcQ0X-13">
          <mxGeometry x="40" y="360" width="120" height="40" as="geometry" />
        </mxCell>
        <mxCell id="V888Rv6FAk_6unNwcQ0X-18" style="edgeStyle=orthogonalEdgeStyle;rounded=0;orthogonalLoop=1;jettySize=auto;html=1;entryX=0;entryY=0.5;entryDx=0;entryDy=0;" edge="1" parent="1" source="V888Rv6FAk_6unNwcQ0X-15" target="V888Rv6FAk_6unNwcQ0X-17">
          <mxGeometry relative="1" as="geometry" />
        </mxCell>
        <mxCell id="V888Rv6FAk_6unNwcQ0X-32" style="edgeStyle=orthogonalEdgeStyle;rounded=0;orthogonalLoop=1;jettySize=auto;html=1;entryX=1;entryY=0.5;entryDx=0;entryDy=0;entryPerimeter=0;" edge="1" parent="1" source="V888Rv6FAk_6unNwcQ0X-25" target="V888Rv6FAk_6unNwcQ0X-31">
          <mxGeometry relative="1" as="geometry">
            <mxPoint x="340" y="430" as="targetPoint" />
            <Array as="points">
              <mxPoint x="340" y="420" />
            </Array>
          </mxGeometry>
        </mxCell>
        <mxCell id="V888Rv6FAk_6unNwcQ0X-43" style="edgeStyle=orthogonalEdgeStyle;rounded=0;orthogonalLoop=1;jettySize=auto;html=1;" edge="1" parent="1" source="V888Rv6FAk_6unNwcQ0X-19" target="V888Rv6FAk_6unNwcQ0X-45">
          <mxGeometry relative="1" as="geometry">
            <mxPoint x="490" y="260" as="targetPoint" />
          </mxGeometry>
        </mxCell>
        <mxCell id="V888Rv6FAk_6unNwcQ0X-55" style="edgeStyle=orthogonalEdgeStyle;rounded=0;orthogonalLoop=1;jettySize=auto;html=1;entryX=0;entryY=0.5;entryDx=0;entryDy=0;" edge="1" parent="1" source="V888Rv6FAk_6unNwcQ0X-52" target="V888Rv6FAk_6unNwcQ0X-54">
          <mxGeometry relative="1" as="geometry" />
        </mxCell>
        <mxCell id="V888Rv6FAk_6unNwcQ0X-62" style="edgeStyle=orthogonalEdgeStyle;rounded=0;orthogonalLoop=1;jettySize=auto;html=1;entryX=0;entryY=0.5;entryDx=0;entryDy=0;" edge="1" parent="1" source="V888Rv6FAk_6unNwcQ0X-60" target="V888Rv6FAk_6unNwcQ0X-56">
          <mxGeometry relative="1" as="geometry" />
        </mxCell>
        <mxCell id="V888Rv6FAk_6unNwcQ0X-72" value="Ja" style="text;html=1;align=center;verticalAlign=middle;resizable=0;points=[];autosize=1;strokeColor=none;fillColor=none;fontSize=8;" vertex="1" parent="1">
          <mxGeometry x="593" y="404" width="30" height="20" as="geometry" />
        </mxCell>
        <mxCell id="V888Rv6FAk_6unNwcQ0X-73" value="Nein" style="text;html=1;align=center;verticalAlign=middle;resizable=0;points=[];autosize=1;strokeColor=none;fillColor=none;fontSize=8;" vertex="1" parent="1">
          <mxGeometry x="569" y="439" width="40" height="20" as="geometry" />
        </mxCell>
        <mxCell id="V888Rv6FAk_6unNwcQ0X-75" style="edgeStyle=orthogonalEdgeStyle;rounded=0;orthogonalLoop=1;jettySize=auto;html=1;entryX=1;entryY=0.5;entryDx=0;entryDy=0;" edge="1" parent="1" source="V888Rv6FAk_6unNwcQ0X-63" target="V888Rv6FAk_6unNwcQ0X-74">
          <mxGeometry relative="1" as="geometry" />
        </mxCell>
        <mxCell id="V888Rv6FAk_6unNwcQ0X-76" style="edgeStyle=orthogonalEdgeStyle;rounded=0;orthogonalLoop=1;jettySize=auto;html=1;entryX=0.5;entryY=1;entryDx=0;entryDy=0;" edge="1" parent="1" source="V888Rv6FAk_6unNwcQ0X-74" target="V888Rv6FAk_6unNwcQ0X-35">
          <mxGeometry relative="1" as="geometry" />
        </mxCell>
      </root>
    </mxGraphModel>
  </diagram>
</mxfile>
